<?xml version="1.0" encoding="utf-8"?><svg viewBox="0 0 154 211" xmlns="http://www.w3.org/2000/svg" xmlns:xlink="http://www.w3.org/1999/xlink"><style>:root>svg{display:none}:root>svg:target{display:block}</style><svg viewBox="0 0 19 19" id="arrow" xmlns="http://www.w3.org/2000/svg"><path d="M.73 16.899a.85.85 0 101.202 1.202L.73 16.899zM18.445 1.237a.85.85 0 00-.85-.85h-7.65a.85.85 0 000 1.7h6.8v6.8a.85.85 0 001.7 0v-7.65zM1.931 18.1L18.196 1.838 16.993.636.73 16.899l1.202 1.202z"/></svg><svg viewBox="0 0 33 16" id="arrow-left" xmlns="http://www.w3.org/2000/svg"><path d="M31.129 6.97a1 1 0 110 2v-2zM.723 8.679a1 1 0 010-1.414L7.087.9a1 1 0 111.414 1.414L2.845 7.97 8.5 13.628a1 1 0 11-1.414 1.414L.723 8.678zm30.406.293H1.43v-2h29.7v2z"/></svg><svg viewBox="0 0 33 16" id="arrow-right" xmlns="http://www.w3.org/2000/svg"><path d="M1.492 6.97a1 1 0 000 2v-2zm30.406 1.708a1 1 0 000-1.414L25.534.9a1 1 0 10-1.414 1.414l5.656 5.657-5.656 5.657a1 1 0 001.414 1.414l6.364-6.364zM1.492 8.97h29.699v-2H1.492v2z"/></svg><svg viewBox="0 0 142 211" id="decor-left" xmlns="http://www.w3.org/2000/svg"><circle cx="133" cy="9" r="9" transform="rotate(-180 133 9)"/><circle cx="133" cy="45" r="9" transform="rotate(-180 133 45)"/><circle cx="133" cy="81" r="9" transform="rotate(-180 133 81)"/><circle opacity=".5" cx="94" cy="101" r="9" transform="rotate(-180 94 101)"/><circle opacity=".5" cx="94" cy="136" r="9" transform="rotate(-180 94 136)"/><circle cx="94" cy="202" r="9" transform="rotate(-180 94 202)"/><circle opacity=".5" cx="94" cy="169" r="9" transform="rotate(-180 94 169)"/><circle r="12" transform="matrix(-1 0 0 1 94 58)"/><circle opacity=".5" r="12" transform="matrix(-1 0 0 1 55 97)"/><circle opacity=".5" r="12" transform="matrix(-1 0 0 1 55 136)"/><circle cx="10" cy="136" r="10"/></svg><svg viewBox="0 0 140 147" id="decor-right" xmlns="http://www.w3.org/2000/svg"><circle opacity=".5" r="9" transform="matrix(1 0 0 -1 9 9)"/><circle r="9" transform="matrix(1 0 0 -1 9 45)"/><circle r="9" transform="matrix(1 0 0 -1 48 61.5)"/><circle r="9" transform="matrix(1 0 0 -1 48 100)"/><circle opacity=".5" cx="87" cy="61.5" r="12"/><circle opacity=".5" cx="87" cy="100" r="12"/><circle opacity=".5" r="9" transform="matrix(1 0 0 -1 48 138)"/><circle opacity=".5" cx="130" cy="100" r="10"/></svg><svg viewBox="0 0 154 32" id="logo" xmlns="http://www.w3.org/2000/svg"><path d="M.702 17.598v.064c.282 3.068 3.194 5.387 6.828 5.387 4.04 0 6.231-1.63 6.231-4.635 0-2.505-2.068-4.291-7.204-6.105-3.506-1.288-5.353-3.478-5.353-6.39C1.204 2.941 3.99.843 7.937.843c3.413 0 5.824 1.566 7.014 4.478l-.627.346c-1.034-2.63-3.224-4.04-6.387-4.04-3.069 0-4.98 1.346-4.98 3.475 0 2.068 1.535 3.634 4.824 4.919 3.946 1.44 8.048 3.037 8.048 7.58 0 3.664-3.445 6.23-8.3 6.23-3.318 0-7.047-1.941-7.485-6.044l.658-.19zM16.64 23.55l9.238-19.323-.909-2.13c-.094-.125-.061-.375.126-.437.878-.315 1.376-.657 1.597-1.064.125-.095.22-.095.345.033l9.645 22.924h-2.63l-2.977-7.014H20.772l-3.352 7.014h-.78v-.003zm4.511-7.8h9.615l-4.54-10.679-5.075 10.68zm17.596 7.767V1.125h1.285l15.91 18.446V1.125h.657v22.141c0 .376-.343.502-.593.19L39.438 4.196V23.52h-.69v-.003zM59.54 1.908v-.783h17.005v.783h-7.14v21.64h-2.472V1.908H59.54zm42.139 21.642V1.125h6.577c5.949 0 8.77 1.753 8.77 5.512 0 2.851-2.194 4.79-5.889 5.449l5.858 11.462h-2.851l-5.543-11.242h-4.481l.031 11.242h-2.472v.002zm2.441-12.027h4.54c3.475 0 5.542-1.848 5.542-4.886 0-3.227-1.847-4.729-5.857-4.729h-4.041c-.126.627-.19 1.91-.19 3.475v6.14h.006zm16.755 12.027V1.125h2.471v22.423h-2.471v.002zm7.417-.033V1.125h1.285l15.909 18.446V1.125h.658v22.141c0 .376-.343.502-.593.19l-16.568-19.26V23.52h-.691v-.003zm22.796.033V1.125h2.475v22.423h-2.475v.002zM95.689 9.009a11.116 11.116 0 00-4.11-4.33 10.814 10.814 0 00-5.688-1.584c-2.038 0-3.935.527-5.688 1.583-1.761 1.057-3.13 2.497-4.125 4.331-.992 1.828-1.49 3.815-1.49 5.953 0 2.112.484 4.074 1.451 5.896a11.218 11.218 0 001.973 2.69h3.144a9.395 9.395 0 01-3.42-3.645 10.464 10.464 0 01-1.22-4.947c0-1.736.396-3.364 1.201-4.885a9.32 9.32 0 013.408-3.64 8.904 8.904 0 014.766-1.362c1.672 0 3.238.445 4.69 1.326 1.457.886 2.597 2.087 3.433 3.614a10.171 10.171 0 011.246 4.947c0 1.792-.421 3.45-1.257 4.986-.83 1.516-1.956 2.722-3.394 3.608h3.154a11.14 11.14 0 001.987-2.722 12.446 12.446 0 001.433-5.866c-.003-2.138-.502-4.122-1.494-5.953zM78.004 28.068v-1.642h15.762v1.642H78.004zm3.164 3.65v-1.64h9.435v1.64h-9.435z"/></svg><svg viewBox="0 0 48 60" id="logo-center" xmlns="http://www.w3.org/2000/svg"><path d="M44.39 12.637c-2.053-3.819-4.916-6.81-8.55-9.006C32.195 1.434 28.26.339 24.011.339c-4.236 0-8.183 1.095-11.829 3.292-3.663 2.196-6.508 5.193-8.577 9.006C1.54 16.44.504 20.572.504 25.017c0 4.393 1.008 8.473 3.02 12.264 1.112 2.092 2.468 3.958 4.103 5.593h6.538c-3.05-1.872-5.414-4.405-7.112-7.581a21.765 21.765 0 01-2.538-10.287c0-3.611.823-6.996 2.498-10.16 1.657-3.153 4.028-5.674 7.088-7.57 3.048-1.883 6.352-2.834 9.91-2.834 3.478 0 6.735.928 9.755 2.76 3.03 1.842 5.401 4.34 7.14 7.516 1.727 3.165 2.59 6.602 2.59 10.288 0 3.726-.875 7.175-2.613 10.368-1.727 3.153-4.069 5.663-7.06 7.506h6.561c1.646-1.646 3.02-3.542 4.133-5.663 1.988-3.79 2.979-7.859 2.979-12.2-.006-4.445-1.044-8.572-3.107-12.38zM7.61 51.27v-3.413h32.78v3.413H7.61zm6.578 8.391v-3.414h19.624v3.414H14.188z"/></svg><svg viewBox="0 0 25 25" id="users" xmlns="http://www.w3.org/2000/svg"><path fill-rule="evenodd" clip-rule="evenodd" d="M4.3 8.256a5.5 5.5 0 118.595 4.547 9.005 9.005 0 015.9 8.181.75.75 0 01-1.5.045 7.5 7.5 0 00-14.993 0 .75.75 0 01-1.499-.045 9.005 9.005 0 015.9-8.181A5.494 5.494 0 014.3 8.256zm5.499-4a4 4 0 100 8 4 4 0 000-8z"/><path d="M18.089 8.256c-.148 0-.292.01-.434.031a.75.75 0 11-.212-1.485 4.53 4.53 0 013.38 8.097 6.691 6.691 0 013.956 6.107.75.75 0 11-1.5 0 5.193 5.193 0 00-3.696-4.971l-.534-.16v-1.677l.41-.208a3.03 3.03 0 00-1.37-5.734z"/></svg></svg>