<svg width="25" height="25" viewBox="0 0 25 25" fill="none" xmlns="http://www.w3.org/2000/svg">
<path fill-rule="evenodd" clip-rule="evenodd" d="M4.29907 8.25635C4.29907 5.21879 6.76146 2.75635 9.79899 2.75635C12.8365 2.75635 15.2989 5.21879 15.2989 8.25635C15.2989 10.1458 14.3461 11.8128 12.8948 12.803C16.2593 14.0355 18.6828 17.2193 18.7949 20.984C18.8072 21.3981 18.4815 21.7437 18.0675 21.756C17.6535 21.7683 17.3078 21.4427 17.2955 21.0287C17.1754 16.9921 13.8649 13.7563 9.7989 13.7563C5.73292 13.7563 2.42242 16.9921 2.30229 21.0287C2.28996 21.4427 1.94434 21.7683 1.53031 21.756C1.11628 21.7437 0.790628 21.3981 0.802951 20.984C0.914999 17.2193 3.33858 14.0354 6.70314 12.8029C5.25184 11.8127 4.29907 10.1458 4.29907 8.25635ZM9.79899 4.25635C7.58991 4.25635 5.79907 6.0472 5.79907 8.25635C5.79907 10.4655 7.58991 12.2563 9.79899 12.2563C12.0081 12.2563 13.7989 10.4655 13.7989 8.25635C13.7989 6.0472 12.0081 4.25635 9.79899 4.25635Z" fill="#4567AA"/>
<path d="M18.089 8.25635C17.9413 8.25635 17.7965 8.26686 17.6552 8.28706C17.2452 8.34571 16.8652 8.06085 16.8066 7.65081C16.748 7.24077 17.0328 6.86082 17.4429 6.80218C17.6543 6.77194 17.87 6.75635 18.089 6.75635C20.5908 6.75635 22.6189 8.78451 22.6189 11.2863C22.6189 12.7622 21.9131 14.0722 20.8226 14.8987C23.154 15.9439 24.7789 18.2846 24.7789 21.0063C24.7789 21.4206 24.4431 21.7563 24.0289 21.7563C23.6147 21.7563 23.2789 21.4206 23.2789 21.0063C23.2789 18.6605 21.722 16.6763 19.5834 16.0345L19.0489 15.8741V14.1982L19.4592 13.9897C20.4457 13.4885 21.1189 12.4654 21.1189 11.2863C21.1189 9.61291 19.7624 8.25635 18.089 8.25635Z" fill="#4567AA"/>
</svg>
